# File created by Blade
# Date/Time:  Mon Sep 29 17:58:21 2014
# Frame Rate: 120.000 fps
#------------------------------------------------------
:FULLY-SPECIFIED
:DEGREES
2433
root -0.520054 2.914230 -7.796796 -29.527461 4.184427 -1.157728
Spine 32.489927 -25.545569 7.129755
Head -11.726622 -41.292932 8.469084
LeftShoulder 13.471948 -15.971484 29.463407
LeftArm 68.334243 -18.095256 -59.882103
LeftForeArm -16.399959 0.000000 32.183841
LeftHand -22.558053 -0.000000 1.833481
LeftHandThumb1 -26.253704 0.000000 33.147579
RightShoulder -17.165327 8.274937 -34.883007
RightArm -33.185941 -15.742166 100.595180
RightForeArm 18.699175 -0.000000 29.428485
RightHand -16.217804 -0.000000 -69.933315
RightHandThumb1 -24.326973 -0.000000 -32.862282
LeftUpLeg -60.713986 0.643285 -7.582407
LeftLeg 6.975306 -0.000000 -0.000000
LeftFoot 34.461126 -14.947862 -4.181352
LeftToeBase 16.537046 -0.000000 -0.000000
RightUpLeg -95.001377 27.424701 42.328695
RightLeg 122.224884 -0.000000 -0.000000
RightFoot 6.348559 -25.479893 3.698597
RightToeBase 0.571372 -0.000000 -0.000000
2434
root -0.512613 2.917665 -7.798208 -29.480999 4.071930 -1.179069
Spine 32.676395 -26.252838 6.764684
Head -12.912203 -42.019444 8.822763
LeftShoulder 14.055743 -16.740471 29.116851
LeftArm 69.015479 -17.799519 -61.327719
LeftForeArm -16.590661 -0.000000 31.449417
LeftHand -22.787608 -0.000000 2.598657
LeftHandThumb1 -26.253704 0.000000 33.147579
RightShoulder -17.245280 8.501490 -35.004643
RightArm -32.757183 -16.249529 100.558760
RightForeArm 18.302636 -0.000000 29.445173
RightHand -16.295154 0.000000 -69.925990
RightHandThumb1 -24.326973 -0.000000 -32.862282
LeftUpLeg -60.780309 0.888711 -7.768584
LeftLeg 6.979911 -0.000000 -0.000000
LeftFoot 34.564232 -14.831730 -4.227354
LeftToeBase 16.461811 -0.000000 -0.000000
RightUpLeg -95.016185 27.557572 42.304210
RightLeg 122.217757 -0.000000 -0.000000
RightFoot 6.344706 -25.437252 3.798235
RightToeBase 0.531833 -0.000000 -0.000000
2435
root -0.505818 2.920802 -7.801281 -29.405524 3.936777 -1.193478
Spine 32.835277 -26.967772 6.458803
Head -14.147945 -42.772958 9.102403
LeftShoulder 14.674756 -17.697744 28.592852
LeftArm 69.371724 -17.389377 -62.776072
LeftForeArm -16.886260 0.000000 30.538326
LeftHand -22.614220 -0.000000 2.937061
LeftHandThumb1 -26.253704 0.000000 33.147579
RightShoulder -17.369501 8.709156 -35.185676
RightArm -32.318912 -16.778877 100.543889
RightForeArm 17.948382 0.000000 29.500362
RightHand -16.298993 -0.000000 -69.857416
RightHandThumb1 -24.326973 -0.000000 -32.862282
LeftUpLeg -60.878089 1.134803 -7.927417
LeftLeg 6.981055 -0.000000 -0.000000
LeftFoot 34.591448 -14.792162 -4.199078
LeftToeBase 16.423890 -0.000000 -0.000000
RightUpLeg -95.037580 27.727629 42.279798
RightLeg 122.208155 -0.000000 -0.000000
RightFoot 6.324024 -25.408770 3.885748
RightToeBase 0.499969 -0.000000 -0.000000
2436
root -0.500982 2.922494 -7.804138 -29.337241 3.790907 -1.200024
Spine 33.039235 -27.676369 6.095569
Head -15.458131 -43.489591 9.489058
LeftShoulder 15.254833 -18.449184 28.173624
LeftArm 69.728338 -16.971974 -64.245671
LeftForeArm -17.544730 0.000000 29.746581
LeftHand -22.760742 -0.000000 3.598182
LeftHandThumb1 -26.253704 0.000000 33.147579
RightShoulder -17.435422 8.919105 -35.325602
RightArm -31.851713 -17.223098 100.485166
RightForeArm 17.277657 -0.000000 29.521243
RightHand -16.528024 -0.000000 -69.600926
RightHandThumb1 -24.326973 -0.000000 -32.862282
LeftUpLeg -60.971457 1.398035 -8.095745
LeftLeg 6.975252 -0.000000 -0.000000
LeftFoot 34.547513 -14.858827 -3.916093
LeftToeBase 16.565818 -0.000000 -0.000000
RightUpLeg -95.042841 27.895674 42.271252
RightLeg 122.188628 -0.000000 -0.000000
RightFoot 6.321137 -25.371478 3.993798
RightToeBase 0.384337 -0.000000 -0.000000
2437
root -0.497082 2.922761 -7.809327 -29.238909 3.606305 -1.215309
Spine 33.215647 -28.321256 5.839457
Head -16.809082 -44.286591 9.859846
LeftShoulder 15.831461 -19.232745 27.689966
LeftArm 69.902255 -16.443844 -65.578360
LeftForeArm -18.463115 -0.000000 29.023889
LeftHand -22.887092 -0.000000 4.309315
LeftHandThumb1 -26.253704 0.000000 33.147579
RightShoulder -17.611366 9.082284 -35.494383
RightArm -31.348702 -17.652440 100.417461
RightForeArm 16.814275 -0.000000 29.561382
RightHand -16.446837 -0.000000 -69.475751
RightHandThumb1 -24.326973 -0.000000 -32.862282
LeftUpLeg -61.105601 1.662484 -8.199260
LeftLeg 6.991328 -0.000000 -0.000000
LeftFoot 34.594239 -14.825109 -3.874673
LeftToeBase 16.194075 -0.000000 -0.000000
RightUpLeg -95.051517 28.097818 42.301619
RightLeg 122.155733 -0.000000 -0.000000
RightFoot 6.403726 -25.369777 3.955629
RightToeBase 0.297423 -0.000000 -0.000000
2438
root -0.490280 2.923382 -7.816385 -29.165822 3.414421 -1.236550
Spine 33.467044 -29.016716 5.549651
Head -18.259612 -44.938864 10.323458
LeftShoulder 16.354965 -19.785782 27.245794
LeftArm 70.077936 -15.984402 -66.771234
LeftForeArm -19.604985 -0.000000 28.349193
LeftHand -23.175463 0.000000 5.144196
LeftHandThumb1 -26.253704 0.000000 33.147579
RightShoulder -17.783618 9.318237 -35.723342
RightArm -30.848672 -18.110817 100.407177
RightForeArm 16.407356 -0.000000 29.565542
RightHand -16.380917 -0.000000 -69.321425
RightHandThumb1 -24.326973 -0.000000 -32.862282
LeftUpLeg -61.202421 1.912450 -8.284271
LeftLeg 6.969917 -0.000000 -0.000000
LeftFoot 34.607557 -14.813473 -3.768305
LeftToeBase 16.142625 -0.000000 -0.000000
RightUpLeg -95.046441 28.271501 42.326454
RightLeg 122.129341 -0.000000 -0.000000
RightFoot 6.414145 -25.309608 4.056566
RightToeBase 0.141733 -0.000000 -0.000000
2439
root -0.480787 2.924860 -7.825075 -29.074104 3.209864 -1.252930
Spine 33.733186 -29.673541 5.272714
Head -19.809698 -45.538204 10.942185
LeftShoulder 16.829095 -20.414914 26.760305
LeftArm 70.057599 -15.379331 -67.807342
LeftForeArm -20.712565 -0.000000 27.701042
LeftHand -23.303229 -0.000000 5.811535
LeftHandThumb1 -26.253704 0.000000 33.147579
RightShoulder -17.974167 9.528485 -35.861882
RightArm -30.298232 -18.526433 100.277458
RightForeArm 15.939604 -0.000000 29.603187
RightHand -16.371983 -0.000000 -69.192185
RightHandThumb1 -24.326973 -0.000000 -32.862282
LeftUpLeg -61.325677 2.153908 -8.340379
LeftLeg 6.974950 -0.000000 -0.000000
LeftFoot 34.387925 -14.909975 -3.337178
LeftToeBase 16.605175 -0.000000 -0.000000
RightUpLeg -95.056666 28.444057 42.343548
RightLeg 122.103848 -0.000000 -0.000000
RightFoot 6.458264 -25.238126 4.129851
RightToeBase 0.041078 -0.000000 -0.000000
2440
root -0.479037 2.928094 -7.833373 -29.043643 2.992674 -1.246068
Spine 34.141230 -30.279063 4.866335
Head -21.406749 -46.048494 11.780140
LeftShoulder 17.211291 -20.830543 26.403769
LeftArm 70.128732 -14.760554 -68.771747
LeftForeArm -22.190720 -0.000000 27.107387
LeftHand -23.209623 -0.000000 6.264908
LeftHandThumb1 -26.253704 0.000000 33.147579
RightShoulder -18.138676 9.732450 -35.884426
RightArm -29.767882 -18.929202 100.129245
RightForeArm 15.483048 -0.000000 29.737941
RightHand -16.303820 -0.000000 -69.059802
RightHandThumb1 -24.326973 -0.000000 -32.862282
LeftUpLeg -61.376283 2.439904 -8.413700
LeftLeg 6.952551 -0.000000 -0.000000
LeftFoot 34.289278 -14.947381 -3.068726
LeftToeBase 16.531379 -0.000000 -0.000000
RightUpLeg -94.978652 28.600148 42.387126
RightLeg 122.066215 -0.000000 -0.000000
RightFoot 6.435952 -25.146910 4.284449
RightToeBase -0.032595 -0.000000 0.000000
